<svg width="32" height="33" viewBox="0 0 32 33" fill="none" xmlns="http://www.w3.org/2000/svg">
<path d="M16.1568 0.783203L32 27.0993L16 21.9791L16.1568 0.783203Z" fill="#FFD54F"/>
<path d="M16.8889 21.5025L17.0314 2.23589L16.1568 0.783203L16 21.9791L32 27.0993L31.4325 26.1568L16.8889 21.5025Z" fill="#F0C746"/>
<path d="M32 27.0987L15.4251 32.7839L0 27.0987L16 21.9785L32 27.0987Z" fill="#FFB300"/>
<path d="M16 22.8319L30.713 27.5402L32 27.0987L16 21.9785L0 27.0987L1.23936 27.5555L16 22.8319Z" fill="#DEA318"/>
<path d="M16.1568 0.783203L16 21.9791L0 27.0993L3.13173 21.9979L10.7883 9.52682L16.1568 0.783203Z" fill="#F7EDCD"/>
<path d="M3.58667 23.2494L11.2431 10.7784L16.1419 2.79989L16.1568 0.783203L10.7883 9.52682L3.13173 21.9979L0 27.0993L1.52224 26.6121L3.58667 23.2494Z" fill="#E2D5AD"/>
</svg>
