<svg width="68" height="69" viewBox="0 0 68 69" fill="none" xmlns="http://www.w3.org/2000/svg">
<g id="ribbon 1" clip-path="url(#clip0_770_28508)">
<g id="surface1">
<path id="Vector" d="M20.9292 68.0756L16.88 60.3642L8.18183 60.8145C7.72373 60.8383 7.42024 60.3465 7.64747 59.9481L24.0249 31.1953L38.3245 39.3404L21.9476 68.0927C21.7204 68.4916 21.1424 68.4818 20.9292 68.0756Z" fill="#FD715C"/>
<path id="Vector_2" d="M20.932 68.0772L16.8828 60.3658L31.1772 35.2695L38.3273 39.3421L21.9504 68.0943C21.7232 68.4933 21.1452 68.4834 20.932 68.0772Z" fill="#EE5646"/>
<path id="Vector_3" d="M47.1184 68.0756L51.1677 60.3642L59.8658 60.8145C60.3239 60.8383 60.6269 60.3465 60.4002 59.9481L44.0228 31.1953L29.7227 39.3404L46.1 68.0927C46.3273 68.4916 46.9052 68.4818 47.1184 68.0756Z" fill="#EE5646"/>
<path id="Vector_4" d="M47.1184 68.0753L51.1677 60.3639L36.8727 35.2676L29.7227 39.3401L46.1 68.0924C46.3273 68.4913 46.9052 68.4815 47.1184 68.0753Z" fill="#FD715C"/>
<path id="Vector_5" d="M35.5022 1.68575L37.7444 0.699003C39.2718 0.0261229 41.0606 0.4671 42.1002 1.77239L43.6271 3.68831C44.2693 4.49504 45.2213 4.99412 46.2496 5.0652L48.6936 5.23277C50.3584 5.34742 51.7374 6.56919 52.0518 8.20807L52.513 10.6137C52.707 11.6264 53.3177 12.511 54.196 13.0516L56.2816 14.3361C57.7025 15.2108 58.3557 16.9337 57.8727 18.5306L57.163 20.8755C56.8642 21.8623 56.9939 22.9295 57.5199 23.8161L58.7702 25.9229C59.6216 27.3579 59.3995 29.1867 58.2291 30.3763L56.5114 32.1225C55.7882 32.8577 55.4069 33.8626 55.4608 34.8924L55.589 37.339C55.6761 39.0054 54.6292 40.5213 53.0401 41.0308L50.7076 41.7789C49.7255 42.0938 48.9214 42.8066 48.4903 43.7431L47.4667 45.9687C46.7694 47.4846 45.1383 48.3412 43.4942 48.0538L41.0813 47.632C40.0655 47.4545 39.0217 47.7113 38.2051 48.3407L36.2643 49.8353C34.9424 50.8537 33.1001 50.8537 31.7783 49.8353L29.8374 48.3407C29.0208 47.7113 27.977 47.454 26.9612 47.632L24.5483 48.0538C22.9042 48.3412 21.2731 47.4846 20.5759 45.9687L19.5523 43.7431C19.1212 42.8066 18.317 42.0938 17.3349 41.7789L15.0024 41.0308C13.4134 40.5213 12.3664 39.0054 12.4536 37.3385L12.5817 34.8924C12.6352 33.8626 12.2544 32.8577 11.5312 32.1225L9.81342 30.3763C8.64302 29.1867 8.42097 27.3579 9.27232 25.9229L10.5226 23.8161C11.0487 22.9295 11.1784 21.8623 10.8796 20.8755L10.1698 18.5306C9.68632 16.9332 10.34 15.2108 11.761 14.3361L13.8466 13.0516C14.7249 12.511 15.3355 11.6264 15.5295 10.6137L15.9907 8.20807C16.3051 6.56919 17.6841 5.34742 19.3489 5.23277L21.793 5.06468C22.8212 4.99412 23.7732 4.49452 24.4155 3.68831L25.9423 1.77239C26.982 0.4671 28.7708 0.0261229 30.2981 0.698484L32.5404 1.68575C33.4841 2.10131 34.5585 2.10131 35.5022 1.68575Z" fill="#FED066"/>
<path id="Vector_6" d="M35.5022 1.68575L37.7444 0.699003C39.2718 0.0261229 41.0606 0.4671 42.1002 1.77239L43.6271 3.68831C44.2693 4.49504 45.2213 4.99412 46.2496 5.0652L48.6936 5.23277C50.3584 5.34742 51.7374 6.56919 52.0518 8.20807L52.513 10.6137C52.707 11.6264 53.3177 12.511 54.196 13.0516L56.2816 14.3361C57.7025 15.2108 58.3557 16.9337 57.8727 18.5306L57.163 20.8755C56.8642 21.8623 56.9939 22.9295 57.5199 23.8161L58.7702 25.9229C59.6216 27.3579 59.3995 29.1867 58.2291 30.3763L56.5114 32.1225C55.7882 32.8577 55.4069 33.8626 55.4608 34.8924L55.589 37.339C55.6761 39.0054 54.6292 40.5213 53.0401 41.0308L50.7076 41.7789C49.7255 42.0938 48.9214 42.8066 48.4903 43.7431L47.4667 45.9687C46.7694 47.4846 45.1383 48.3412 43.4942 48.0538L41.0813 47.632C40.0655 47.4545 39.0217 47.7113 38.2051 48.3407L36.2643 49.8353C34.9424 50.8537 33.1001 50.8537 31.7783 49.8353L29.8374 48.3407C29.0208 47.7113 27.977 47.454 26.9612 47.632L24.5483 48.0538C22.9042 48.3412 21.2731 47.4846 20.5759 45.9687L19.5523 43.7431C19.1212 42.8066 18.317 42.0938 17.3349 41.7789L15.0024 41.0308C13.4134 40.5213 12.3664 39.0054 12.4536 37.3385L12.5817 34.8924C12.6352 33.8626 12.2544 32.8577 11.5312 32.1225L9.81342 30.3763C8.64302 29.1867 8.42097 27.3579 9.27232 25.9229L10.5226 23.8161C11.0487 22.9295 11.1784 21.8623 10.8796 20.8755L10.1698 18.5306C9.68632 16.9332 10.34 15.2108 11.761 14.3361L13.8466 13.0516C14.7249 12.511 15.3355 11.6264 15.5295 10.6137L15.9907 8.20807C16.3051 6.56919 17.6841 5.34742 19.3489 5.23277L21.793 5.06468C22.8212 4.99412 23.7732 4.49452 24.4155 3.68831L25.9423 1.77239C26.982 0.4671 28.7708 0.0261229 30.2981 0.698484L32.5404 1.68575C33.4841 2.10131 34.5585 2.10131 35.5022 1.68575Z" fill="#FED066"/>
<path id="Vector_7" d="M51.3088 25.4923C51.3088 35.0392 43.5699 42.7781 34.0236 42.7781C24.4772 42.7781 16.7383 35.0392 16.7383 25.4923C16.7383 15.9459 24.4772 8.20703 34.0236 8.20703C43.5699 8.20703 51.3088 15.9459 51.3088 25.4923Z" fill="#FD715C"/>
<path id="Vector_8" d="M34.0262 8.20703C32.8154 8.20703 31.633 8.33206 30.4922 8.56915C38.3437 10.2002 44.2434 17.1568 44.2434 25.4923C44.2434 33.8273 38.3437 40.7839 30.4922 42.4155C31.633 42.6526 32.8154 42.7776 34.0262 42.7776C43.5726 42.7776 51.3115 35.0387 51.3115 25.4923C51.3115 15.9454 43.5726 8.20703 34.0262 8.20703Z" fill="#EE5646"/>
<path id="Vector_9" d="M58.7725 25.9229L57.5222 23.8161C56.9961 22.9295 56.8664 21.8623 57.1652 20.8755L57.875 18.5306C58.358 16.9332 57.7048 15.2108 56.2838 14.3361L54.1982 13.0516C53.3199 12.5105 52.7093 11.6259 52.5153 10.6137L52.0541 8.20755C51.7397 6.56867 50.3607 5.34742 48.6959 5.23277L46.2518 5.06468C45.2236 4.99412 44.2716 4.49452 43.6293 3.68831L42.1025 1.77239C41.0628 0.4671 39.274 0.0261229 37.7467 0.698484L36.3008 1.33505C45.7304 5.29918 52.3524 14.6225 52.3524 25.4933C52.3524 34.7767 47.5229 42.9317 40.2395 47.5842C40.5196 47.5682 40.8024 47.5827 41.0831 47.632L43.4965 48.0538C45.1406 48.3407 46.7717 47.4846 47.4689 45.9687L48.4925 43.7431C48.9231 42.8066 49.7278 42.0938 50.7098 41.7789L53.0424 41.0308C54.6314 40.5213 55.6779 39.0054 55.5907 37.3385L55.4631 34.8924C55.4091 33.8626 55.7904 32.8577 56.5136 32.1225L58.2314 30.3763C59.4018 29.1867 59.6238 27.3579 58.7725 25.9229Z" fill="#F5B556"/>
<path id="Vector_10" d="M34.4199 13.5258L36.92 21.2201C36.9755 21.3913 37.1353 21.507 37.3153 21.507H45.4054C45.808 21.507 45.9756 22.0227 45.6497 22.2593L39.1046 27.0145C38.9588 27.1209 38.8981 27.3082 38.9536 27.4794L41.4537 35.1737C41.5782 35.5571 41.1398 35.8756 40.814 35.6385L34.2689 30.8832C34.1231 30.7774 33.9255 30.7774 33.7802 30.8832L27.235 35.6385C26.9087 35.8756 26.4703 35.5571 26.5949 35.1737L29.0949 27.4794C29.1504 27.3082 29.0897 27.1209 28.944 27.0145L22.3988 22.2593C22.073 22.0227 22.2401 21.507 22.6432 21.507H30.7333C30.9133 21.507 31.0731 21.3913 31.1286 21.2201L33.6287 13.5258C33.7532 13.1424 34.2954 13.1424 34.4199 13.5258Z" fill="#F2F2F2"/>
</g>
</g>
<defs>
<clipPath id="clip0_770_28508">
<rect width="68" height="68" fill="white" transform="translate(-0.000488281 0.304688)"/>
</clipPath>
</defs>
</svg>
